<?xml version="1.0" encoding="UTF-8"?>
<COLLADA xmlns="http://www.collada.org/2005/11/COLLADASchema" version="1.4.1">
    <asset>
        <contributor>
            <author>VCGLab</author>
            <authoring_tool>VCGLib | MeshLab</authoring_tool>
        </contributor>
        <created>Sun May 25 05:37:06 2025 GMT</created>
        <modified>Sun May 25 05:37:06 2025 GMT</modified>
        <up_axis>Y_UP</up_axis>
    </asset>
    <library_geometries>
        <geometry id="shape0-lib" name="shape0">
            <mesh>
                <source id="shape0-lib-positions" name="position">
                    <float_array id="shape0-lib-positions-array" count="843">-1.50529e-17 -0.336 -0.1 0.0239316 -0.216 -0.0970942 0.0239316 -0.336 -0.0970942 0.0464723 -0.216 -0.0885456 0.0464723 -0.336 -0.0885456 0.0663123 -0.216 -0.0748511 0.0663123 -0.336 -0.0748511 0.0822984 -0.216 -0.0568065 0.0822984 -0.336 -0.0568065 0.0935016 -0.216 -0.0354605 0.0935016 -0.336 -0.0354605 0.0992709 -0.216 -0.0120537 0.0992709 -0.336 -0.0120537 0.0992709 -0.216 0.0120537 0.0992709 -0.336 0.0120537 0.0935016 -0.216 0.0354605 0.0935016 -0.336 0.0354605 0.0822984 -0.216 0.0568065 0.0822984 -0.336 0.0568065 0.0663123 -0.216 0.0748511 0.0663123 -0.336 0.0748511 0.0464723 -0.216 0.0885456 0.0464723 -0.336 0.0885456 0.0239316 -0.216 0.0970942 0.0239316 -0.336 0.0970942 1.75756e-18 -0.216 0.1 -3.9503e-18 -0.336 0.1 -0.0239316 -0.216 0.0970942 -0.0239316 -0.336 0.0970942 -0.0464723 -0.216 0.0885456 -0.0464723 -0.336 0.0885456 -0.0663123 -0.216 0.0748511 -0.0663123 -0.336 0.0748511 -0.0822984 -0.216 0.0568065 -0.0822984 -0.336 0.0568065 -0.0935016 -0.216 0.0354605 -0.0935016 -0.336 0.0354605 -0.0992709 -0.216 0.0120537 -0.0992709 -0.336 0.0120537 -0.0992709 -0.216 -0.0120537 -0.0992709 -0.336 -0.0120537 -0.0935016 -0.216 -0.0354605 -0.0935016 -0.336 -0.0354605 -0.0822984 -0.216 -0.0568065 -0.0822984 -0.336 -0.0568065 -0.0663123 -0.216 -0.0748511 -0.0663123 -0.336 -0.0748511 -0.0464723 -0.216 -0.0885456 -0.0464723 -0.336 -0.0885456 -0.0239316 -0.216 -0.0970942 -0.0239316 -0.336 -0.0970942 -9.34507e-18 -0.216 -0.1 2.05426e-17 -0.336 0.1 -1.56248e-17 -0.336 2.04494e-17 -9.00193e-18 -0.216 -0.16 0.0312145 -0.2 -0.156926 0.0312145 -0.216 -0.156926 0.0612293 -0.2 -0.147821 0.0612293 -0.216 -0.147821 0.0888912 -0.2 -0.133035 0.0888912 -0.216 -0.133035 0.113137 -0.2 -0.113137 0.113137 -0.216 -0.113137 0.133035 -0.2 -0.0888912 0.133035 -0.216 -0.0888912 0.147821 -0.2 -0.0612293 0.147821 -0.216 -0.0612293 0.156926 -0.2 -0.0312145 0.156926 -0.216 -0.0312145 0.16 -0.2 1.98946e-17 0.16 -0.216 1.89149e-17 0.156926 -0.2 0.0312145 0.156926 -0.216 0.0312145 0.147821 -0.2 0.0612293 0.147821 -0.216 0.0612293 0.133035 -0.2 0.0888912 0.133035 -0.216 0.0888912 0.113137 -0.2 0.113137 0.113137 -0.216 0.113137 0.0888912 -0.2 0.133035 0.0888912 -0.216 0.133035 0.0612293 -0.2 0.147821 0.0612293 -0.216 0.147821 0.0312145 -0.2 0.156926 0.0312145 -0.216 0.156926 9.52334e-18 -0.2 0.16 8.76229e-18 -0.216 0.16 -0.0312145 -0.2 0.156926 -0.0312145 -0.216 0.156926 -0.0612293 -0.2 0.147821 -0.0612293 -0.216 0.147821 -0.0888912 -0.2 0.133035 -0.0888912 -0.216 0.133035 -0.113137 -0.2 0.113137 -0.113137 -0.216 0.113137 -0.133035 -0.2 0.0888912 -0.133035 -0.216 0.0888912 -0.147821 -0.2 0.0612293 -0.147821 -0.216 0.0612293 -0.156926 -0.2 0.0312145 -0.156926 -0.216 0.0312145 -0.16 -0.2 5.72532e-17 -0.16 -0.216 5.62735e-17 -0.156926 -0.2 -0.0312145 -0.156926 -0.216 -0.0312145 -0.147821 -0.2 -0.0612293 -0.147821 -0.216 -0.0612293 -0.133035 -0.2 -0.0888912 -0.133035 -0.216 -0.0888912 -0.113137 -0.2 -0.113137 -0.113137 -0.216 -0.113137 -0.0888912 -0.2 -0.133035 -0.0888912 -0.216 -0.133035 -0.0612293 -0.2 -0.147821 -0.0612293 -0.216 -0.147821 -0.0312145 -0.2 -0.156926 -0.0312145 -0.216 -0.156926 -8.24088e-18 -0.2 -0.16 -0.11 -0.2 -0.07 -0.10866 -0.2 -0.075 -0.105 -0.2 -0.0786603 -0.1 -0.2 -0.08 0.1 -0.2 0.08 0.11 -0.2 0.07 0.10866 -0.2 0.075 0.105 -0.2 0.0786603 -0.11 -0.2 0.07 -0.1 -0.2 0.08 -0.105 -0.2 0.0786603 -0.10866 -0.2 0.075 0.11 -0.2 -0.07 0.1 -0.2 -0.08 0.105 -0.2 -0.0786603 0.10866 -0.2 -0.075 4.7951e-17 -0.216 0.16 0.0729543 -0.1076 0.08 0.0943794 -0.0894009 0.08 0.1 -0.0830662 0.08 0.048118 -0.120767 0.08 0.0210317 -0.128287 0.08 -0.00703806 -0.129809 0.08 -0.0347787 -0.125262 0.08 -0.0608931 -0.114857 0.08 -0.0841602 -0.0990811 0.08 -0.1 -0.0830662 0.08 -0.11 -0.069282 0.07 -0.11 -0.069282 -0.07 0.11 -0.069282 -0.07 0.11 -0.069282 0.07 0.048118 -0.120767 -0.08 0.0729543 -0.1076 -0.08 0.0943794 -0.0894009 -0.08 0.1 -0.0830662 -0.08 -0.0608931 -0.114857 -0.08 -0.0841602 -0.0990811 -0.08 -0.1 -0.0830662 -0.08 -0.0347787 -0.125262 -0.08 -0.00703806 -0.129809 -0.08 0.0210317 -0.128287 -0.08 0.111391 -0.067022 0.09 0.105 -0.0766485 0.0786603 0.106971 -0.0738725 0.0771694 0.10866 -0.0713649 0.075 0.109615 -0.0698898 0.0727486 0.111391 -0.067022 -0.09 0.109614 -0.069891 -0.0727512 0.10866 -0.0713649 -0.075 0.106968 -0.0738773 -0.0771727 0.105 -0.0766485 -0.0786603 0.0943794 -0.0894009 -0.09 0.0943794 -0.0894009 0.09 0.0729543 -0.1076 0.09 0.048118 -0.120767 0.09 0.0210317 -0.128287 0.09 -0.00703806 -0.129809 0.09 -0.0347787 -0.125262 0.09 -0.0608931 -0.114857 0.09 -0.0841602 -0.0990811 0.09 -0.103492 -0.0786727 0.09 -0.103492 -0.0786727 0.0793704 -0.106971 -0.0738725 -0.0771694 -0.117985 -0.0545856 -0.09 -0.105 -0.0766485 -0.0786603 -0.103492 -0.0786727 -0.09 -0.109614 -0.069891 0.0727512 -0.117985 -0.0545856 0.09 -0.10866 -0.0713649 -0.075 -0.109615 -0.0698898 -0.0727486 -0.10866 -0.0713649 0.075 -0.106968 -0.0738773 0.0771727 -0.104961 -0.0767021 0.0786827 -0.10352 -0.0786354 -0.0793599 0.0729543 -0.1076 -0.09 0.048118 -0.120767 -0.09 0.0210317 -0.128287 -0.09 -0.00703806 -0.129809 -0.09 -0.0347787 -0.125262 -0.09 -0.0608931 -0.114857 -0.09 -0.0841602 -0.0990811 -0.09 0.123195 -0.0415092 -0.09 0.123195 -0.0415092 0.09 0.129238 -0.0140555 -0.09 0.129238 -0.0140555 0.09 0.13 -4.52995e-09 0.09 0.13 -4.52995e-09 -0.09 0.129238 0.0140555 0.09 0.129238 0.0140555 -0.09 0.123195 0.0415092 -0.09 0.123195 0.0415092 0.09 0.111391 0.067022 -0.09 0.111391 0.067022 0.09 0.0943794 0.0894009 -0.09 0.0943794 0.0894009 0.09 0.0729543 0.1076 -0.09 0.0729543 0.1076 0.09 0.048118 0.120767 -0.09 0.048118 0.120767 0.09 0.0210317 0.128287 -0.09 0.0210317 0.128287 0.09 -0.00703806 0.129809 -0.09 -0.00703806 0.129809 0.09 -0.0347787 0.125262 -0.09 -0.0347787 0.125262 0.09 -0.0608931 0.114857 -0.09 -0.0608931 0.114857 0.09 -0.0841602 0.0990811 -0.09 -0.0841602 0.0990811 0.09 -0.103492 0.0786726 -0.09 -0.103492 0.0786726 0.09 -0.117985 0.0545856 -0.09 -0.117985 0.0545856 0.09 -0.126961 0.0279462 -0.09 -0.126961 0.0279462 0.09 -0.13 -4.52995e-09 -0.09 -0.13 -4.52995e-09 0.09 -0.126961 -0.0279461 -0.09 -0.126961 -0.0279461 0.09 0.075 -4.52995e-09 0.09 0.071962 -0.0211299 0.09 0.0311561 -0.0682224 0.09 0.0491146 -0.0566812 0.09 0.063094 -0.0405481 0.09 -0.0311561 -0.0682224 0.09 -0.0106736 -0.0742366 0.09 0.0106736 -0.0742366 0.09 -0.071962 -0.0211299 0.09 -0.063094 -0.0405481 0.09 -0.0491146 -0.0566812 0.09 -0.063094 0.0405481 0.09 -0.071962 0.0211299 0.09 -0.075 -4.52995e-09 0.09 -0.0106736 0.0742366 0.09 -0.0311561 0.0682224 0.09 -0.0491146 0.0566812 0.09 0.0491146 0.0566812 0.09 0.0311561 0.0682224 0.09 0.0106736 0.0742366 0.09 0.071962 0.0211299 0.09 0.063094 0.0405481 0.09 -0.063094 -0.0405481 -0.09 -0.071962 -0.0211299 -0.09 -0.075 -4.52995e-09 -0.09 -0.071962 0.0211299 -0.09 -0.0106736 -0.0742366 -0.09 -0.0311561 -0.0682224 -0.09 -0.0491146 -0.0566812 -0.09 0.0491146 -0.0566812 -0.09 0.0311561 -0.0682224 -0.09 0.0106736 -0.0742366 -0.09 0.075 -4.52995e-09 -0.09 0.071962 0.0211299 -0.09 -0.0311561 0.0682224 -0.09 -0.0106736 0.0742366 -0.09 0.0106736 0.0742366 -0.09 0.0311561 0.0682224 -0.09 0.071962 -0.0211299 -0.09 0.063094 -0.0405481 -0.09 -0.063094 0.0405481 -0.09 -0.0491146 0.0566812 -0.09 0.0491146 0.0566812 -0.09 0.063094 0.0405481 -0.09</float_array>
                    <technique_common>
                        <accessor count="281" source="#shape0-lib-positions-array" stride="3">
                            <param name="X" type="float"/>
                            <param name="Y" type="float"/>
                            <param name="Z" type="float"/>
                        </accessor>
                    </technique_common>
                </source>
                <source id="shape0-lib-normals" name="normal">
                    <float_array id="shape0-lib-normals-array" count="1674">0.120537 0 -0.992709 0.354605 0 -0.935016 0.354605 0 -0.935016 0.568065 0 -0.822984 0.568065 0 -0.822984 0.748511 0 -0.663123 0.748511 0 -0.663123 0.885456 0 -0.464723 0.885456 0 -0.464723 0.970942 0 -0.239316 0.970942 0 -0.239316 1 0 0 1 0 0 0.970942 0 0.239316 0.970942 0 0.239316 0.885456 0 0.464723 0.885456 0 0.464723 0.748511 0 0.663123 0.748511 0 0.663123 0.568065 0 0.822984 0.568065 0 0.822984 0.354605 0 0.935016 0.354605 0 0.935016 0.120537 0 0.992709 0.120537 0 0.992709 -0.120537 5.73339e-18 0.992709 -0.120537 0 0.992709 -0.354605 0 0.935016 -0.354605 0 0.935016 -0.568065 0 0.822984 -0.568065 0 0.822984 -0.748511 0 0.663123 -0.748511 0 0.663123 -0.885456 0 0.464723 -0.885456 0 0.464723 -0.970942 0 0.239316 -0.970942 0 0.239316 -1 0 0 -1 0 0 -0.970942 0 -0.239316 -0.970942 0 -0.239316 -0.885456 0 -0.464723 -0.885456 0 -0.464723 -0.748511 0 -0.663123 -0.748511 0 -0.663123 -0.568065 0 -0.822984 -0.568065 0 -0.822984 -0.354605 0 -0.935016 -0.354605 0 -0.935016 -0.120537 0 -0.992709 -0.120537 0 -0.992709 0.120537 -5.73339e-18 -0.992709 0 -1 0 0 -1 0 0 -1 0 0 -1 0 0 -1 0 0 -1 0 0 -1 0 0 -1 0 0 -1 0 0 -1 0 0 -1 0 0 -1 0 0 -1 0 0 -1 0 0 -1 0 0 -1 0 0 -1 0 0 -1 0 0 -1 0 0 -1 0 0 -1 0 0 -1 0 0 -1 0 0 -1 0 0 -1 0 0 -1 0 0.0980169 0 -0.995185 0.290285 0 -0.95694 0.290285 0 -0.95694 0.471397 0 -0.881921 0.471397 0 -0.881921 0.634393 0 -0.77301 0.634393 0 -0.77301 0.77301 0 -0.634393 0.77301 0 -0.634393 0.881921 0 -0.471397 0.881921 0 -0.471397 0.95694 0 -0.290285 0.95694 0 -0.290285 0.995185 0 -0.0980169 0.995185 0 -0.0980169 0.995185 -6.00161e-18 0.0980169 0.995185 0 0.0980169 0.95694 0 0.290285 0.95694 0 0.290285 0.881921 0 0.471397 0.881921 0 0.471397 0.77301 0 0.634393 0.77301 0 0.634393 0.634393 0 0.77301 0.634393 0 0.77301 0.471397 0 0.881921 0.471397 0 0.881921 0.290285 0 0.95694 0.290285 0 0.95694 0.0980169 0 0.995185 0.0980169 0 0.995185 -0.0980169 4.66222e-18 0.995185 -0.0980169 0 0.995185 -0.290285 0 0.95694 -0.290285 0 0.95694 -0.471397 0 0.881921 -0.471397 0 0.881921 -0.634393 0 0.77301 -0.634393 0 0.77301 -0.77301 0 0.634393 -0.77301 0 0.634393 -0.881921 0 0.471397 -0.881921 0 0.471397 -0.95694 0 0.290285 -0.95694 0 0.290285 -0.995185 0 0.0980169 -0.995185 0 0.0980169 -0.995185 6.00161e-18 -0.0980169 -0.995185 0 -0.0980169 -0.95694 0 -0.290285 -0.95694 0 -0.290285 -0.881921 0 -0.471397 -0.881921 0 -0.471397 -0.77301 0 -0.634393 -0.77301 0 -0.634393 -0.634393 0 -0.77301 -0.634393 0 -0.77301 -0.471397 0 -0.881921 -0.471397 0 -0.881921 -0.290285 0 -0.95694 -0.290285 0 -0.95694 -0.0980169 0 -0.995185 -0.0980169 0 -0.995185 0.0980169 -4.66222e-18 -0.995185 0 1 0 0 1 0 0 1 0 0 1 0 0 1 0 0 1 0 0 1 0 0 1 0 0 1 0 0 1 0 0 1 0 0 1 0 0 1 0 0 1 0 0 1 0 0 1 0 0 1 0 0 1 0 0 1 0 0 1 0 0 1 0 0 1 0 0 1 0 0 1 0 0 1 0 0 1 0 0 1 0 0 1 0 0 1 0 0 1 0 0 1 0 0 1 0 0 1 0 0 1 0 0 1 0 0 1 0 0 1 0 0 1 0 0 1 0 0 1 0 0 1 0 0 1 0 0 1 0 0 1 0 0 1 0 0 1 0 0 1 0 0 1 0 0 -1 0 0 -1 0 0 -1 0 0 -1 0 0 -1 0 0 -1 0 0 -1 0 0 -1 0 0 -1 0 0 -1 0 0 -1 0 0 -1 0 0 -1 0 0 -1 0 0 -1 0 0 -1 0 0 -1 0 0 -1 0 0 -1 0 0 -1 0 0 -1 0 0 -1 0 0 -1 0 0 -1 0 0 -1 0 0 -1 0 0 -1 0 0 -1 0 0 -1 0 0 -1 0 0 -1 0 0 -1 0 0 -1 0 0 -1 0 0 -1 0 0 -1 0 0 -1 0 0 -1 0 0 -1 0 0 -1 0 0 -1 0 0 -1 0 0 -1 0 0 -1 0 0 -1 0 0 -1 0 0 -1 0 0 -1 0 0 -1 0 0 -1 0 0 -1 0 0 -1 0 0 -1 0 0 -1 0 0 -1 0 0 -1 0 0 -1 0 0 -1 0 0 0 1 0 0 1 0 0 1 0 0 1 0 0 1 0 0 1 0 0 1 0 0 1 0 0 1 0 0 1 -1 0 0 -1 0 0 1 0 0 1 0 0 0 0 -1 0 0 -1 0 0 -1 0 0 -1 0 0 -1 0 0 -1 0 0 -1 0 0 -1 0 0 -1 0 0 -1 0.820706 -0.570924 0.0220935 0.832814 -0.553486 0.00861181 0.841677 -0.539972 0.00308535 0.847005 -0.531584 0.00114226 0.85155 -0.524274 0 0.847 -0.531592 -0.00114353 0.841675 -0.539975 -0.00308648 0.832802 -0.553504 -0.00861902 0.820695 -0.570939 -0.0221119 0.794415 -0.603898 -0.0649041 0.793598 -0.605206 -0.0626679 0.793757 -0.604653 0.0659152 0.794463 -0.603935 0.0639596 0.748011 -0.663686 0 0.647386 -0.762162 0 0.647386 -0.762162 0 0.468408 -0.883512 0 0.468408 -0.883512 0 0.267528 -0.96355 0 0.267528 -0.96355 0 0.0541385 -0.998533 0 0.0541385 -0.998533 0 -0.161782 -0.986827 0 -0.161782 -0.986827 0 -0.370138 -0.928977 0 -0.370138 -0.928977 0 -0.561187 -0.827689 0 -0.561187 -0.827689 0 -0.710982 -0.70321 0 -0.725139 -0.686888 0.0485642 -0.782844 -0.622218 0 -0.835288 -0.541256 -0.096621 -0.856652 -0.51543 -0.0219102 -0.870848 -0.491369 0.0133917 -0.850197 -0.523376 -0.0569472 -0.861008 -0.507551 -0.0325238 -0.870856 -0.491357 -0.0133798 -0.861004 -0.507557 0.0325328 -0.850184 -0.523394 0.0569749 -0.856191 -0.515153 0.039421 -0.816547 -0.577253 0.00546316 -0.801779 -0.597621 0 -0.709677 -0.701919 -0.0605678 -0.782949 -0.622086 9.52336e-05 -0.802047 -0.597261 -4.24824e-05 0.748011 -0.663686 0 0.647386 -0.762162 0 0.647386 -0.762162 0 0.468408 -0.883512 0 0.468408 -0.883512 0 0.267528 -0.96355 0 0.267528 -0.96355 0 0.0541385 -0.998533 0 0.0541385 -0.998533 0 -0.161782 -0.986827 0 -0.161782 -0.986827 0 -0.370138 -0.928977 0 -0.370138 -0.928977 0 -0.561187 -0.827689 0 -0.561187 -0.827689 0 -0.725996 -0.687699 0 0.85155 -0.524274 0 0.907576 -0.419889 0 0.907576 -0.419889 0 0.976621 -0.214971 0 0.976621 -0.214971 0 0.998533 -0.0541386 0 0.998533 -0.0541386 0 0.998533 0.0541385 0 0.998533 0.0541385 0 0.976621 0.214971 0 0.976621 0.214971 0 0.907575 0.419889 0 0.907575 0.419889 0 0.796093 0.605174 0 0.796093 0.605174 0 0.647386 0.762162 0 0.647386 0.762162 0 0.468408 0.883512 0 0.468408 0.883512 0 0.267529 0.96355 0 0.267529 0.96355 0 0.0541385 0.998533 0 0.0541385 0.998533 0 -0.161782 0.986827 0 -0.161782 0.986827 0 -0.370139 0.928976 0 -0.370139 0.928976 0 -0.561187 0.827689 0 -0.561187 0.827689 0 -0.725996 0.687699 0 -0.725996 0.687699 0 -0.856857 0.515554 0 -0.856857 0.515554 0 -0.947653 0.319302 0 -0.947653 0.319302 0 -0.994138 0.108119 0 -0.994138 0.108119 0 -0.994138 -0.108119 0 -0.994138 -0.108119 0 -0.947653 -0.319301 0 -0.947653 -0.319301 0 -0.878685 -0.477403 0 -0.878685 -0.477403 0 0 0 1 0 0 1 0 0 1 0 0 1 0 0 1 0 0 1 0 0 1 0 0 1 0 0 1 0 0 1 0 0 1 0 0 1 0 0 1 0 0 1 0 0 1 0 0 1 0 0 1 0 0 1 0 0 1 0 0 1 0 0 1 0 0 1 0 0 1 0 0 1 0 0 1 0 0 1 0 0 1 0 0 1 0 0 1 0 0 1 0 0 1 0 0 1 0 0 1 0 0 1 0 0 1 0 0 1 0 0 1 0 0 1 0 0 1 0 0 1 0 0 1 0 0 1 0 0 1 0 0 1 0 0 1 0 0 1 0 0 1 0 0 1 0 0 1 0 0 1 0 0 1 0 0 1 0 0 -1 0 0 -1 0 0 -1 0 0 -1 0 0 -1 0 0 -1 0 0 -1 0 0 -1 0 0 -1 0 0 -1 0 0 -1 0 0 -1 0 0 -1 0 0 -1 0 0 -1 0 0 -1 0 0 -1 0 0 -1 0 0 -1 0 0 -1 0 0 -1 0 0 -1 0 0 -1 0 0 -1 0 0 -1 0 0 -1 0 0 -1 0 0 -1 0 0 -1 0 0 -1 0 0 -1 0 0 -1 0 0 -1 0 0 -1 0 0 -1 0 0 -1 0 0 -1 0 0 -1 0 0 -1 0 0 -1 0 0 -1 0 0 -1 0 0 -1 0 0 -1 0 0 -1 0 0 -1 0 0 -1 0 0 -1 0 0 -1 0 0 -1 0 0 -1 0 0 -1 0.989821 -0.142315 0 0.989821 -0.142315 0 0.909632 -0.415415 0 0.909632 -0.415415 0 0.75575 -0.654861 0 0.75575 -0.654861 0 0.540641 -0.841253 0 0.540641 -0.841253 0 0.281732 -0.959493 0 0.281732 -0.959493 0 0 -1 0 0 -1 0 -0.281732 -0.959493 0 -0.281732 -0.959493 0 -0.540641 -0.841253 0 -0.540641 -0.841253 0 -0.75575 -0.654861 0 -0.75575 -0.654861 0 -0.909632 -0.415415 0 -0.909632 -0.415415 0 -0.989821 -0.142315 0 -0.989821 -0.142315 0 -0.989821 0.142315 0 -0.989821 0.142315 0 -0.909632 0.415415 0 -0.909632 0.415415 0 -0.75575 0.654861 0 -0.75575 0.654861 0 -0.540641 0.841253 0 -0.540641 0.841253 0 -0.281732 0.959493 0 -0.281732 0.959493 0 0 1 0 0 1 0 0.281732 0.959493 0 0.281732 0.959493 0 0.540641 0.841253 0 0.540641 0.841253 0 0.75575 0.654861 0 0.75575 0.654861 0 0.909632 0.415415 0 0.909632 0.415415 0 0.989821 0.142315 0 0.989821 0.142315 0 -0.965926 0 0.258819 -0.921877 -0.00545835 0.387443 -0.990305 0 0.138907 -0.258818 0 0.965926 -0.181679 -0.00349808 0.983352 -0.42408 -3.04508e-05 0.905625 -0.707107 9.54131e-05 0.707107 -0.606185 -0.00556686 0.795304 -0.788926 0 0.614489 -0.178905 0 -0.983866 -0.258818 -0.00241264 -0.965923 -0.427454 0 -0.904037 -0.60319 0 -0.797598 -0.707104 -0.00269374 -0.707104 -0.789068 0 -0.614306 -0.920662 0 -0.390361 -0.965922 -0.00260824 -0.258819 -0.990324 0 -0.138772 0.607929 -0.00552051 -0.793972 0.788926 0 -0.614489 0.965926 0 -0.258819 0.921877 -0.00545835 -0.387443 0.990305 0 -0.138907 0.707107 0 -0.707107 0.258818 0 -0.965926 0.258818 0 -0.965926 0.258818 0 0.965926 0.258818 0 0.965926 0.60319 0 0.797598 0.707104 -0.00269374 0.707104 0.789068 0 0.614306 0.920662 0 0.390361 0.965922 -0.00260824 0.258819 0.990324 0 0.138772</float_array>
                    <technique_common>
                        <accessor count="558" source="#shape0-lib-normals-array" stride="3">
                            <param name="X" type="float"/>
                            <param name="Y" type="float"/>
                            <param name="Z" type="float"/>
                        </accessor>
                    </technique_common>
                </source>
                <vertices id="shape0-lib-vertices">
                    <input semantic="POSITION" source="#shape0-lib-positions"/>
                </vertices>
                <triangles count="558">
                    <input offset="0" semantic="VERTEX" source="#shape0-lib-vertices"/>
                    <input offset="1" semantic="NORMAL" source="#shape0-lib-normals"/>
                    <p>0 0 1 0 2 0 2 1 1 1 3 1 2 2 3 2 4 2 4 3 3 3 5 3 4 4 5 4 6 4 6 5 5 5 7 5 6 6 7 6 8 6 8 7 7 7 9 7 8 8 9 8 10 8 10 9 9 9 11 9 10 10 11 10 12 10 12 11 11 11 13 11 12 12 13 12 14 12 14 13 13 13 15 13 14 14 15 14 16 14 16 15 15 15 17 15 16 16 17 16 18 16 18 17 17 17 19 17 18 18 19 18 20 18 20 19 19 19 21 19 20 20 21 20 22 20 22 21 21 21 23 21 22 22 23 22 24 22 24 23 23 23 25 23 24 24 25 24 26 24 26 25 25 25 27 25 26 26 27 26 28 26 28 27 27 27 29 27 28 28 29 28 30 28 30 29 29 29 31 29 30 30 31 30 32 30 32 31 31 31 33 31 32 32 33 32 34 32 34 33 33 33 35 33 34 34 35 34 36 34 36 35 35 35 37 35 36 36 37 36 38 36 38 37 37 37 39 37 38 38 39 38 40 38 40 39 39 39 41 39 40 40 41 40 42 40 42 41 41 41 43 41 42 42 43 42 44 42 44 43 43 43 45 43 44 44 45 44 46 44 46 45 45 45 47 45 46 46 47 46 48 46 48 47 47 47 49 47 48 48 49 48 50 48 50 49 49 49 51 49 50 50 51 50 0 50 0 51 51 51 1 51 52 52 28 52 53 52 52 53 53 53 24 53 18 54 20 54 53 54 53 55 20 55 22 55 53 56 22 56 24 56 12 57 14 57 53 57 53 58 14 58 16 58 53 59 16 59 18 59 6 60 8 60 53 60 53 61 8 61 10 61 53 62 10 62 12 62 0 63 2 63 53 63 53 64 2 64 4 64 53 65 4 65 6 65 46 66 48 66 53 66 53 67 48 67 50 67 53 68 50 68 0 68 40 69 42 69 53 69 53 70 42 70 44 70 53 71 44 71 46 71 34 72 36 72 53 72 53 73 36 73 38 73 53 74 38 74 40 74 28 75 30 75 53 75 53 76 30 76 32 76 53 77 32 77 34 77 54 78 55 78 56 78 56 79 55 79 57 79 56 80 57 80 58 80 58 81 57 81 59 81 58 82 59 82 60 82 60 83 59 83 61 83 60 84 61 84 62 84 62 85 61 85 63 85 62 86 63 86 64 86 64 87 63 87 65 87 64 88 65 88 66 88 66 89 65 89 67 89 66 90 67 90 68 90 68 91 67 91 69 91 68 92 69 92 70 92 70 93 69 93 71 93 70 94 71 94 72 94 72 95 71 95 73 95 72 96 73 96 74 96 74 97 73 97 75 97 74 98 75 98 76 98 76 99 75 99 77 99 76 100 77 100 78 100 78 101 77 101 79 101 78 102 79 102 80 102 80 103 79 103 81 103 80 104 81 104 82 104 82 105 81 105 83 105 82 106 83 106 84 106 84 107 83 107 85 107 84 108 85 108 86 108 86 109 85 109 87 109 86 110 87 110 88 110 88 111 87 111 89 111 88 112 89 112 90 112 90 113 89 113 91 113 90 114 91 114 92 114 92 115 91 115 93 115 92 116 93 116 94 116 94 117 93 117 95 117 94 118 95 118 96 118 96 119 95 119 97 119 96 120 97 120 98 120 98 121 97 121 99 121 98 122 99 122 100 122 100 123 99 123 101 123 100 124 101 124 102 124 102 125 101 125 103 125 102 126 103 126 104 126 104 127 103 127 105 127 104 128 105 128 106 128 106 129 105 129 107 129 106 130 107 130 108 130 108 131 107 131 109 131 108 132 109 132 110 132 110 133 109 133 111 133 110 134 111 134 112 134 112 135 111 135 113 135 112 136 113 136 114 136 114 137 113 137 115 137 114 138 115 138 116 138 116 139 115 139 117 139 116 140 117 140 54 140 54 141 117 141 55 141 105 142 118 142 107 142 107 143 118 143 119 143 107 144 119 144 109 144 109 145 119 145 120 145 109 146 120 146 121 146 93 147 91 147 122 147 122 148 91 148 89 148 122 149 89 149 87 149 87 150 85 150 122 150 122 151 85 151 83 151 122 152 83 152 81 152 73 153 123 153 75 153 75 154 123 154 124 154 75 155 124 155 77 155 124 156 125 156 77 156 77 157 125 157 122 157 77 158 122 158 79 158 79 159 122 159 81 159 105 160 103 160 118 160 118 161 103 161 101 161 118 162 101 162 126 162 61 163 59 163 121 163 121 164 59 164 57 164 122 165 127 165 93 165 93 166 127 166 128 166 93 167 128 167 95 167 95 168 128 168 129 168 95 169 129 169 97 169 97 170 129 170 126 170 97 171 126 171 99 171 99 172 126 172 101 172 57 173 55 173 121 173 121 174 55 174 117 174 121 175 117 175 115 175 115 176 113 176 121 176 121 177 113 177 111 177 121 178 111 178 109 178 73 179 71 179 123 179 123 180 71 180 69 180 123 181 69 181 130 181 121 182 131 182 61 182 61 183 131 183 132 183 61 184 132 184 63 184 63 185 132 185 133 185 63 186 133 186 65 186 65 187 133 187 130 187 65 188 130 188 67 188 67 189 130 189 69 189 45 190 112 190 47 190 47 191 112 191 114 191 47 192 114 192 49 192 49 193 114 193 116 193 49 194 116 194 51 194 51 195 116 195 54 195 51 196 54 196 1 196 1 197 54 197 56 197 1 198 56 198 3 198 37 199 102 199 39 199 39 200 102 200 104 200 39 201 104 201 41 201 41 202 104 202 106 202 41 203 106 203 43 203 43 204 106 204 108 204 43 205 108 205 45 205 45 206 108 206 110 206 45 207 110 207 112 207 29 208 92 208 31 208 31 209 92 209 94 209 31 210 94 210 33 210 33 211 94 211 96 211 33 212 96 212 35 212 35 213 96 213 98 213 35 214 98 214 37 214 37 215 98 215 100 215 37 216 100 216 102 216 19 217 80 217 21 217 21 218 80 218 82 218 21 219 82 219 23 219 23 220 82 220 84 220 23 221 84 221 25 221 25 222 84 222 134 222 25 223 134 223 27 223 27 224 134 224 88 224 27 225 88 225 29 225 29 226 88 226 90 226 29 227 90 227 92 227 11 228 70 228 13 228 13 229 70 229 72 229 13 230 72 230 15 230 15 231 72 231 74 231 15 232 74 232 17 232 17 233 74 233 76 233 17 234 76 234 19 234 19 235 76 235 78 235 19 236 78 236 80 236 56 237 58 237 3 237 3 238 58 238 60 238 3 239 60 239 5 239 5 240 60 240 62 240 5 241 62 241 7 241 7 242 62 242 64 242 7 243 64 243 9 243 9 244 64 244 66 244 9 245 66 245 11 245 11 246 66 246 68 246 11 247 68 247 70 247 135 248 122 248 136 248 136 249 122 249 137 249 135 250 138 250 122 250 122 251 138 251 139 251 122 252 139 252 127 252 127 253 139 253 140 253 127 254 140 254 141 254 141 255 142 255 127 255 127 256 142 256 143 256 127 257 143 257 144 257 145 258 146 258 126 258 126 259 146 259 118 259 147 260 148 260 130 260 130 261 148 261 123 261 149 262 150 262 131 262 131 263 150 263 151 263 131 264 151 264 152 264 153 265 121 265 154 265 154 266 121 266 155 266 153 267 156 267 121 267 121 268 156 268 157 268 121 269 157 269 131 269 131 270 157 270 158 270 131 271 158 271 149 271 159 272 160 272 161 272 161 273 162 273 159 273 159 274 162 274 163 274 159 275 163 275 148 275 148 276 147 276 164 276 164 277 147 277 165 277 164 278 165 278 166 278 166 279 167 279 164 279 164 280 167 280 168 280 164 281 168 281 169 281 169 282 168 282 152 282 160 283 159 283 137 283 137 284 159 284 170 284 137 285 170 285 136 285 136 286 170 286 171 286 136 287 171 287 135 287 135 288 171 288 172 288 135 289 172 289 138 289 138 290 172 290 173 290 138 291 173 291 139 291 139 292 173 292 174 292 139 293 174 293 140 293 140 294 174 294 175 294 140 295 175 295 141 295 141 296 175 296 176 296 141 297 176 297 142 297 142 298 176 298 177 298 142 299 177 299 143 299 143 300 177 300 144 300 144 301 177 301 178 301 144 302 178 302 179 302 180 303 181 303 182 303 182 304 181 304 183 304 145 305 184 305 185 305 180 306 186 306 181 306 181 307 186 307 187 307 181 308 187 308 146 308 184 309 188 309 185 309 185 310 188 310 189 310 185 311 189 311 178 311 178 312 189 312 190 312 178 313 190 313 179 313 154 314 155 314 183 314 183 315 155 315 191 315 183 316 191 316 182 316 152 317 151 317 169 317 169 318 151 318 150 318 169 319 150 319 192 319 192 320 150 320 149 320 192 321 149 321 193 321 193 322 149 322 158 322 193 323 158 323 194 323 194 324 158 324 157 324 194 325 157 325 195 325 195 326 157 326 156 326 195 327 156 327 196 327 196 328 156 328 153 328 196 329 153 329 197 329 197 330 153 330 154 330 197 331 154 331 198 331 198 332 154 332 183 332 148 333 164 333 159 333 159 334 164 334 199 334 159 335 199 335 200 335 200 336 199 336 201 336 200 337 201 337 202 337 202 338 201 338 203 338 203 339 201 339 204 339 203 340 204 340 205 340 204 341 206 341 205 341 205 342 206 342 207 342 205 343 207 343 208 343 208 344 207 344 209 344 208 345 209 345 210 345 210 346 209 346 211 346 210 347 211 347 212 347 212 348 211 348 213 348 212 349 213 349 214 349 214 350 213 350 215 350 214 351 215 351 216 351 216 352 215 352 217 352 216 353 217 353 218 353 218 354 217 354 219 354 218 355 219 355 220 355 220 356 219 356 221 356 220 357 221 357 222 357 222 358 221 358 223 358 222 359 223 359 224 359 224 360 223 360 225 360 224 361 225 361 226 361 226 362 225 362 227 362 226 363 227 363 228 363 228 364 227 364 229 364 228 365 229 365 230 365 230 366 229 366 231 366 230 367 231 367 232 367 232 368 231 368 233 368 232 369 233 369 234 369 234 370 233 370 235 370 234 371 235 371 236 371 236 372 235 372 181 372 236 373 181 373 185 373 185 374 181 374 146 374 185 375 146 375 145 375 202 376 237 376 238 376 239 377 171 377 240 377 240 378 171 378 170 378 240 379 170 379 241 379 241 380 170 380 159 380 241 381 159 381 238 381 238 382 159 382 200 382 238 383 200 383 202 383 242 384 175 384 243 384 243 385 175 385 174 385 243 386 174 386 244 386 244 387 174 387 173 387 244 388 173 388 239 388 239 389 173 389 172 389 239 390 172 390 171 390 245 391 185 391 246 391 246 392 185 392 178 392 246 393 178 393 247 393 247 394 178 394 177 394 247 395 177 395 242 395 242 396 177 396 176 396 242 397 176 397 175 397 248 398 230 398 249 398 249 399 230 399 232 399 249 400 232 400 250 400 250 401 232 401 234 401 250 402 234 402 245 402 245 403 234 403 236 403 245 404 236 404 185 404 251 405 222 405 252 405 252 406 222 406 224 406 252 407 224 407 253 407 253 408 224 408 226 408 253 409 226 409 248 409 248 410 226 410 228 410 248 411 228 411 230 411 254 412 214 412 255 412 255 413 214 413 216 413 255 414 216 414 256 414 256 415 216 415 218 415 256 416 218 416 251 416 251 417 218 417 220 417 251 418 220 418 222 418 202 419 203 419 237 419 237 420 203 420 205 420 237 421 205 421 257 421 257 422 205 422 208 422 257 423 208 423 258 423 258 424 208 424 210 424 258 425 210 425 254 425 254 426 210 426 212 426 254 427 212 427 214 427 259 428 181 428 260 428 260 429 181 429 235 429 260 430 235 430 261 430 261 431 235 431 233 431 261 432 233 432 262 432 263 433 196 433 264 433 264 434 196 434 197 434 264 435 197 435 265 435 265 436 197 436 198 436 265 437 198 437 259 437 259 438 198 438 183 438 259 439 183 439 181 439 266 440 192 440 267 440 267 441 192 441 193 441 267 442 193 442 268 442 268 443 193 443 194 443 268 444 194 444 263 444 263 445 194 445 195 445 263 446 195 446 196 446 206 447 269 447 270 447 271 448 221 448 272 448 272 449 221 449 219 449 272 450 219 450 273 450 273 451 219 451 217 451 273 452 217 452 274 452 206 453 204 453 269 453 269 454 204 454 201 454 269 455 201 455 275 455 275 456 201 456 199 456 275 457 199 457 276 457 276 458 199 458 164 458 276 459 164 459 266 459 266 460 164 460 169 460 266 461 169 461 192 461 233 462 231 462 262 462 262 463 231 463 229 463 262 464 229 464 277 464 277 465 229 465 227 465 277 466 227 466 278 466 278 467 227 467 225 467 278 468 225 468 271 468 271 469 225 469 223 469 271 470 223 470 221 470 217 471 215 471 274 471 274 472 215 472 213 472 274 473 213 473 279 473 279 474 213 474 211 474 279 475 211 475 280 475 280 476 211 476 209 476 280 477 209 477 270 477 270 478 209 478 207 478 270 479 207 479 206 479 250 480 261 480 249 480 249 481 261 481 262 481 249 482 262 482 248 482 248 483 262 483 277 483 248 484 277 484 253 484 253 485 277 485 278 485 253 486 278 486 252 486 252 487 278 487 271 487 252 488 271 488 251 488 251 489 271 489 272 489 251 490 272 490 256 490 256 491 272 491 273 491 256 492 273 492 255 492 255 493 273 493 274 493 255 494 274 494 254 494 254 495 274 495 279 495 254 496 279 496 258 496 258 497 279 497 280 497 258 498 280 498 257 498 257 499 280 499 270 499 257 500 270 500 237 500 237 501 270 501 269 501 237 502 269 502 238 502 238 503 269 503 275 503 238 504 275 504 241 504 241 505 275 505 276 505 241 506 276 506 240 506 240 507 276 507 266 507 240 508 266 508 239 508 239 509 266 509 267 509 239 510 267 510 244 510 244 511 267 511 268 511 244 512 268 512 243 512 243 513 268 513 263 513 243 514 263 514 242 514 242 515 263 515 264 515 242 516 264 516 247 516 247 517 264 517 265 517 247 518 265 518 246 518 246 519 265 519 259 519 246 520 259 520 245 520 245 521 259 521 260 521 245 522 260 522 250 522 250 523 260 523 261 523 129 524 188 524 126 524 126 525 188 525 184 525 126 526 184 526 145 526 128 527 127 527 144 527 144 528 179 528 128 528 128 529 179 529 190 529 128 530 190 530 129 530 129 531 190 531 189 531 129 532 189 532 188 532 155 533 121 533 191 533 191 534 121 534 120 534 191 535 120 535 182 535 182 536 120 536 180 536 180 537 120 537 119 537 180 538 119 538 186 538 186 539 119 539 187 539 187 540 119 540 118 540 187 541 118 541 146 541 168 542 167 542 133 542 133 543 167 543 166 543 133 544 166 544 130 544 130 545 166 545 165 545 130 546 165 546 147 546 133 547 132 547 168 547 168 548 132 548 131 548 168 549 131 549 152 549 122 550 125 550 137 550 137 551 125 551 160 551 160 552 125 552 161 552 161 553 125 553 124 553 161 554 124 554 162 554 162 555 124 555 163 555 163 556 124 556 123 556 163 557 123 557 148 557</p>
                </triangles>
            </mesh>
        </geometry>
    </library_geometries>
    <library_visual_scenes>
        <visual_scene id="VisualSceneNode" name="VisualScene">
            <node id="node" name="node">
                <instance_geometry url="#shape0-lib"/>
            </node>
        </visual_scene>
    </library_visual_scenes>
    <scene>
        <instance_visual_scene url="#VisualSceneNode"/>
    </scene>
</COLLADA>
