<?xml version="1.0" encoding="UTF-8"?>
<COLLADA xmlns="http://www.collada.org/2005/11/COLLADASchema" version="1.4.1">
    <asset>
        <contributor>
            <author>VCGLab</author>
            <authoring_tool>VCGLib | MeshLab</authoring_tool>
        </contributor>
        <created>Sun May 25 05:39:59 2025 GMT</created>
        <modified>Sun May 25 05:39:59 2025 GMT</modified>
        <up_axis>Y_UP</up_axis>
    </asset>
    <library_geometries>
        <geometry id="shape0-lib" name="shape0">
            <mesh>
                <source id="shape0-lib-positions" name="position">
                    <float_array id="shape0-lib-positions-array" count="900">0.22 -0.427455 0.08 0.22 -0.427455 0.06 0.22 -0.327455 0.06 0.22 -0.427455 -0.04 0.22 -0.427455 -0.06 0.22 -0.327455 -0.04 0.22 -0.227455 -0.06 0.22 -0.227455 0.08 0.07 -0.427455 -0.06 0.07 -0.427455 -0.04 0.07 -0.327455 -0.04 0.07 -0.427455 0.06 0.07 -0.427455 0.08 0.07 -0.327455 0.06 0.07 -0.227455 0.08 0.07 -0.227455 -0.06 0.073038 -0.448585 -0.06 0.073038 -0.448585 -0.04 0.081906 -0.468003 -0.06 0.081906 -0.468003 -0.04 0.0958854 -0.484136 -0.06 0.0958854 -0.484136 -0.04 0.113844 -0.495678 -0.06 0.113844 -0.495678 -0.04 0.134326 -0.501692 -0.06 0.134326 -0.501692 -0.04 0.155674 -0.501692 -0.06 0.155674 -0.501692 -0.04 0.176156 -0.495678 -0.06 0.176156 -0.495678 -0.04 0.194115 -0.484136 -0.06 0.194115 -0.484136 -0.04 0.208094 -0.468003 -0.06 0.208094 -0.468003 -0.04 0.216962 -0.448585 -0.06 0.216962 -0.448585 -0.04 0.07 -0.0775 0.08 0.07 -0.147455 0.08 0.08 -0.0775 0.08 0.22 -0.147455 0.08 0.08 0.0925448 0.08 0.22 0.0925448 0.08 0.07 -0.0775 -0.06 0.07 -0.147455 -0.06 0.08 0.0925448 -0.06 0.22 0.0925448 -0.06 0.08 -0.0775 -0.06 0.22 -0.147455 -0.06 0.106794 -0.147455 -0.0425861 0.0924139 -0.147455 -0.028206 0.183206 -0.147455 0.0625861 0.197586 -0.147455 0.048206 0.0924139 -0.147455 0.048206 0.106794 -0.147455 0.0625861 0.197586 -0.147455 -0.028206 0.183206 -0.147455 -0.0425861 0.0831813 -0.147455 -0.0100861 0.08 -0.147455 0.01 0.0831813 -0.147455 0.0300861 0.124914 -0.147455 0.0718187 0.145 -0.147455 0.075 0.165086 -0.147455 0.0718187 0.206819 -0.147455 0.0300861 0.21 -0.147455 0.01 0.206819 -0.147455 -0.0100861 0.165086 -0.147455 -0.0518187 0.145 -0.147455 -0.055 0.124914 -0.147455 -0.0518187 0.075 0.0925448 0.0813397 0.07 0.0925448 -0.07 0.0713397 0.0925448 0.085 0.07 0.0925448 0.09 0.075 0.0925448 -0.0613397 0.0713397 0.0925448 -0.065 0.165086 -0.197455 0.0718187 0.183206 -0.197455 0.0625861 0.197586 -0.197455 0.048206 0.206819 -0.197455 0.0300861 0.21 -0.197455 0.01 0.206819 -0.197455 -0.0100861 0.197586 -0.197455 -0.028206 0.183206 -0.197455 -0.0425861 0.165086 -0.197455 -0.0518187 0.145 -0.197455 -0.055 0.124914 -0.197455 -0.0518187 0.106794 -0.197455 -0.0425861 0.0924139 -0.197455 -0.028206 0.0831813 -0.197455 -0.0100861 0.08 -0.197455 0.01 0.0831813 -0.197455 0.0300861 0.0924139 -0.197455 0.048206 0.106794 -0.197455 0.0625861 0.124914 -0.197455 0.0718187 0.145 -0.197455 0.075 0.155433 -0.207455 -0.0592182 0.145 -0.207455 -0.06 0.145 -0.197455 -0.06 0.134567 -0.197455 -0.0592182 0.134567 -0.207455 -0.0592182 0.114628 -0.207455 -0.0530678 0.114628 -0.197455 -0.0530678 0.0973879 -0.207455 -0.0413136 0.0973879 -0.197455 -0.0413136 0.0843782 -0.207455 -0.025 0.0843782 -0.197455 -0.025 0.076755 -0.207455 -0.00557647 0.076755 -0.197455 -0.00557647 0.0751957 -0.207455 0.0152311 0.0751957 -0.197455 0.0152311 0.0798388 -0.207455 0.0355739 0.0798388 -0.197455 0.0355739 0.0902718 -0.207455 0.0536443 0.0902718 -0.197455 0.0536443 0.105568 -0.207455 0.0678367 0.105568 -0.197455 0.0678367 0.124367 -0.207455 0.0768901 0.124367 -0.197455 0.0768901 0.145 -0.207455 0.08 0.145 -0.197455 0.08 0.165633 -0.207455 0.0768901 0.165633 -0.197455 0.0768901 0.184432 -0.207455 0.0678367 0.184432 -0.197455 0.0678367 0.199728 -0.207455 0.0536443 0.199728 -0.197455 0.0536443 0.210161 -0.207455 0.0355739 0.210161 -0.197455 0.0355739 0.214804 -0.207455 0.0152311 0.214804 -0.197455 0.0152311 0.213245 -0.207455 -0.00557647 0.213245 -0.197455 -0.00557647 0.205622 -0.207455 -0.025 0.205622 -0.197455 -0.025 0.192612 -0.207455 -0.0413136 0.192612 -0.197455 -0.0413136 0.175372 -0.207455 -0.0530678 0.175372 -0.197455 -0.0530678 0.155433 -0.197455 -0.0592182 0.145 -0.207455 -0.055 0.124914 -0.207455 -0.0518187 0.165086 -0.207455 -0.0518187 0.183206 -0.207455 -0.0425861 0.197586 -0.207455 -0.028206 0.206819 -0.207455 -0.0100861 0.21 -0.207455 0.01 0.206819 -0.207455 0.0300861 0.197586 -0.207455 0.048206 0.183206 -0.207455 0.0625861 0.165086 -0.207455 0.0718187 0.145 -0.207455 0.075 0.124914 -0.207455 0.0718187 0.106794 -0.207455 0.0625861 0.0924139 -0.207455 0.048206 0.0831813 -0.207455 0.0300861 0.08 -0.207455 0.01 0.0831813 -0.207455 -0.0100861 0.0924139 -0.207455 -0.028206 0.106794 -0.207455 -0.0425861 0.0433013 -0.025 0.09 0.0321394 -0.0383022 0.09 0.07 -0.0775 0.09 0.017101 -0.0469846 0.09 4.17233e-09 -0.0775 0.09 4.17233e-09 -0.05 0.09 -0.0206535 -0.0746973 0.09 -0.017101 -0.0469846 0.09 -0.0398131 -0.0664919 0.09 -0.0321394 -0.0383022 0.09 -0.0560931 -0.0534772 0.09 -0.068316 -0.0365947 0.09 -0.0433013 -0.025 0.09 -0.0755978 -0.0170653 0.09 -0.0492404 -0.00868241 0.09 -0.0774117 0.00369834 0.09 -0.0492404 0.00868241 0.09 -0.0736266 0.0241945 0.09 -0.0433013 0.025 0.09 -0.0645162 0.0429407 0.09 -0.0507395 0.0585812 0.09 -0.0321394 0.0383022 0.09 -0.0332929 0.0699845 0.09 -0.017101 0.0469846 0.09 -0.0134383 0.076326 0.09 4.17233e-09 0.05 0.09 0.017101 0.0469846 0.09 0.0321394 0.0383022 0.09 0.0433013 0.025 0.09 0.0492404 0.00868241 0.09 0.0492404 -0.00868241 0.09 -0.017101 -0.0469846 -0.07 4.17233e-09 -0.05 -0.07 4.17233e-09 -0.0775 -0.07 0.07 -0.0775 -0.07 0.0321394 -0.0383022 -0.07 0.0433013 -0.025 -0.07 0.017101 -0.0469846 -0.07 0.0492404 -0.00868241 -0.07 0.0492404 0.00868241 -0.07 0.0433013 0.025 -0.07 0.0321394 0.0383022 -0.07 0.017101 0.0469846 -0.07 -0.0134383 0.076326 -0.07 4.17233e-09 0.05 -0.07 -0.0332929 0.0699845 -0.07 -0.017101 0.0469846 -0.07 -0.0507395 0.0585812 -0.07 -0.0321394 0.0383022 -0.07 -0.0645162 0.0429407 -0.07 -0.0433013 0.025 -0.07 -0.0736266 0.0241945 -0.07 -0.0492404 0.00868241 -0.07 -0.0206535 -0.0746973 -0.07 -0.0398131 -0.0664919 -0.07 -0.0321394 -0.0383022 -0.07 -0.0560931 -0.0534772 -0.07 -0.0433013 -0.025 -0.07 -0.068316 -0.0365947 -0.07 -0.0492404 -0.00868241 -0.07 -0.0755978 -0.0170653 -0.07 -0.0774117 0.00369834 -0.07 0.075 -0.0775 -0.0613397 0.075 -0.0775 0.0813397 0.0713397 -0.0775 -0.065 0.0713397 -0.0775 0.085 0.165086 -0.227455 0.0718187 0.183206 -0.227455 0.0625861 0.197586 -0.227455 0.048206 0.206819 -0.227455 0.0300861 0.21 -0.227455 0.01 0.206819 -0.227455 -0.0100861 0.197586 -0.227455 -0.028206 0.183206 -0.227455 -0.0425861 0.165086 -0.227455 -0.0518187 0.145 -0.227455 -0.055 0.124914 -0.227455 -0.0518187 0.106794 -0.227455 -0.0425861 0.0924139 -0.227455 -0.028206 0.0831813 -0.227455 -0.0100861 0.08 -0.227455 0.01 0.0831813 -0.227455 0.0300861 0.0924139 -0.227455 0.048206 0.106794 -0.227455 0.0625861 0.124914 -0.227455 0.0718187 0.145 -0.227455 0.075 0.073038 -0.448585 0.06 0.073038 -0.448585 0.08 0.081906 -0.468003 0.06 0.081906 -0.468003 0.08 0.0958854 -0.484136 0.06 0.0958854 -0.484136 0.08 0.113844 -0.495678 0.06 0.113844 -0.495678 0.08 0.134326 -0.501692 0.06 0.134326 -0.501692 0.08 0.155674 -0.501692 0.06 0.155674 -0.501692 0.08 0.176156 -0.495678 0.06 0.176156 -0.495678 0.08 0.194115 -0.484136 0.06 0.194115 -0.484136 0.08 0.208094 -0.468003 0.06 0.208094 -0.468003 0.08 0.216962 -0.448585 0.06 0.216962 -0.448585 0.08 0.127899 -0.47444 -0.04 0.112861 -0.465757 -0.04 0.162101 -0.380471 -0.04 0.145 -0.377455 -0.04 0.127899 -0.380471 -0.04 0.112861 -0.389153 -0.04 0.101699 -0.452455 -0.04 0.0957596 -0.436138 -0.04 0.0957596 -0.418773 -0.04 0.101699 -0.402455 -0.04 0.145 -0.477455 -0.04 0.162101 -0.47444 -0.04 0.177139 -0.465757 -0.04 0.188301 -0.452455 -0.04 0.19424 -0.436138 -0.04 0.19424 -0.418773 -0.04 0.188301 -0.402455 -0.04 0.177139 -0.389153 -0.04 0.162101 -0.47444 0.06 0.145 -0.477455 0.06 0.127899 -0.47444 0.06 0.112861 -0.465757 0.06 0.101699 -0.452455 0.06 0.0957596 -0.436138 0.06 0.0957596 -0.418773 0.06 0.101699 -0.402455 0.06 0.112861 -0.389153 0.06 0.127899 -0.380471 0.06 0.188301 -0.402455 0.06 0.19424 -0.418773 0.06 0.19424 -0.436138 0.06 0.188301 -0.452455 0.06 0.177139 -0.465757 0.06 0.177139 -0.389153 0.06 0.162101 -0.380471 0.06 0.145 -0.377455 0.06</float_array>
                    <technique_common>
                        <accessor count="300" source="#shape0-lib-positions-array" stride="3">
                            <param name="X" type="float"/>
                            <param name="Y" type="float"/>
                            <param name="Z" type="float"/>
                        </accessor>
                    </technique_common>
                </source>
                <source id="shape0-lib-normals" name="normal">
                    <float_array id="shape0-lib-normals-array" count="1812">1 0 0 1 0 0 1 0 0 1 0 0 1 0 0 1 0 0 -1 0 0 -1 0 0 -1 0 0 -1 0 0 -1 0 0 -1 0 0 -0.989821 -0.142315 0 -0.989821 -0.142315 0 -0.909632 -0.415415 0 -0.909632 -0.415415 0 -0.755749 -0.654861 0 -0.755749 -0.654861 0 -0.540641 -0.841253 0 -0.540641 -0.841253 0 -0.281733 -0.959493 0 -0.281733 -0.959493 0 0 -1 0 0 -1 0 0.281733 -0.959493 0 0.281733 -0.959493 0 0.540641 -0.841253 0 0.540641 -0.841253 0 0.755749 -0.654862 0 0.755749 -0.654862 0 0.909632 -0.415415 0 0.909632 -0.415415 0 0.989822 -0.142314 0 0.989822 -0.142314 0 0 0 1 0 0 1 0 0 1 0 0 1 -1 0 0 -1 0 0 0 0 -1 0 0 -1 0 0 -1 0 0 -1 1 0 0 1 0 0 0 -1 0 0 -1 0 0 -1 0 0 -1 0 0 -1 0 0 -1 0 0 -1 0 0 -1 0 0 -1 0 0 -1 0 0 -1 0 0 -1 0 0 -1 0 0 -1 0 0 -1 0 0 -1 0 0 -1 0 0 -1 0 0 -1 0 0 -1 0 0 -1 0 0 -1 0 0 -1 0 0 -1 0 0 1 0 0 1 0 0 1 0 0 1 0 0 1 0 0 1 0 0 1 0 0 1 0 0.156434 0 0.987688 0.453991 0 0.891007 0.453991 0 0.891007 0.707107 0 0.707107 0.707107 0 0.707107 0.891007 0 0.45399 0.891007 0 0.45399 0.987688 0 0.156434 0.987688 0 0.156434 0.987688 0 -0.156434 0.987688 0 -0.156434 0.891007 0 -0.45399 0.891007 0 -0.45399 0.707107 0 -0.707107 0.707107 0 -0.707107 0.453991 0 -0.891006 0.453991 0 -0.891006 0.156434 0 -0.987688 0.156434 0 -0.987688 -0.156434 0 -0.987688 -0.156434 0 -0.987688 -0.453991 0 -0.891006 -0.453991 0 -0.891006 -0.707107 0 -0.707107 -0.707107 0 -0.707107 -0.891007 0 -0.45399 -0.891007 0 -0.45399 -0.987688 0 -0.156434 -0.987688 0 -0.156434 -0.987688 0 0.156434 -0.987688 0 0.156434 -0.891007 0 0.45399 -0.891007 0 0.45399 -0.707107 0 0.707107 -0.707107 0 0.707107 -0.453991 0 0.891007 -0.453991 0 0.891007 -0.156434 0 0.987688 -0.156434 0 0.987688 0.156434 0 0.987688 0.07473 0 -0.997204 -0.07473 0 -0.997204 -0.07473 0 -0.997204 -0.294755 0 -0.955573 -0.294755 0 -0.955573 -0.56332 0 -0.826239 -0.56332 0 -0.826239 -0.781831 0 -0.62349 -0.781831 0 -0.62349 -0.930874 0 -0.365341 -0.930874 0 -0.365341 -0.997204 0 -0.07473 -0.997204 0 -0.07473 -0.974928 0 0.222521 -0.974928 0 0.222521 -0.866025 0 0.5 -0.866025 0 0.5 -0.680173 0 0.733052 -0.680173 0 0.733052 -0.433884 0 0.900969 -0.433884 0 0.900969 -0.149042 0 0.988831 -0.149042 0 0.988831 0.149042 0 0.988831 0.149042 0 0.988831 0.433884 0 0.900969 0.433884 0 0.900969 0.680173 0 0.733052 0.680173 0 0.733052 0.866025 0 0.5 0.866025 0 0.5 0.974928 0 0.222521 0.974928 0 0.222521 0.997204 0 -0.0747296 0.997204 0 -0.0747296 0.930874 0 -0.365341 0.930874 0 -0.365341 0.781832 0 -0.62349 0.781832 0 -0.62349 0.56332 0 -0.826239 0.56332 0 -0.826239 0.294755 0 -0.955573 0.294755 0 -0.955573 0.07473 0 -0.997204 0 -1 0 0 -1 0 0 -1 0 0 -1 0 0 -1 0 0 -1 0 0 -1 0 0 -1 0 0 -1 0 0 -1 0 0 -1 0 0 -1 0 0 -1 0 0 -1 0 0 -1 0 0 -1 0 0 -1 0 0 -1 0 0 -1 0 0 -1 0 0 -1 0 0 -1 0 0 -1 0 0 -1 0 0 -1 0 0 -1 0 0 -1 0 0 -1 0 0 -1 0 0 -1 0 0 -1 0 0 -1 0 0 -1 0 0 -1 0 0 -1 0 0 -1 0 0 -1 0 0 -1 0 0 -1 0 0 -1 0 0 -1 0 0 -1 0 0 1 0 0 1 0 0 1 0 0 1 0 0 1 0 0 1 0 0 1 0 0 1 0 0 1 0 0 1 0 0 1 0 0 1 0 0 1 0 0 1 0 0 1 0 0 1 0 0 1 0 0 1 0 0 1 0 0 1 0 0 1 0 0 1 0 0 1 0 0 1 0 0 1 0 0 1 0 0 1 0 0 1 0 0 1 0 0 1 0 0 1 0 0 1 0 0 1 0 0 1 0 0 1 0 0 1 0 0 1 0 0 1 0 0 1 0 0 1 0 0 1 0 0 1 0 0 0 1 0 0 1 0 0 1 0 0 1 0 0 1 0 0 1 0 0 1 0 0 1 0 0 1 0 0 1 0 0 1 0 0 1 0 0 1 0 0 1 0 0 1 0 0 1 0 0 1 0 0 1 0 0 1 0 0 1 0 0 1 0 0 1 0 0 1 0 0 1 0 0 1 0 0 1 0 0 1 0 0 1 0 0 1 0 0 1 0 0 1 0 0 1 0 0 -1 0 0 -1 0 0 -1 0 0 -1 0 0 -1 0 0 -1 0 0 -1 0 0 -1 0 0 -1 0 0 -1 0 0 -1 0 0 -1 0 0 -1 0 0 -1 0 0 -1 0 0 -1 0 0 -1 0 0 -1 0 0 -1 0 0 -1 0 0 -1 0 0 -1 0 0 -1 0 0 -1 0 0 -1 0 0 -1 0 0 -1 0 0 -1 0 0 -1 0 0 -1 0 0 -1 0 0 -1 -0.304255 0.952591 0 -0.304255 0.952591 0 -0.547114 0.837058 0 -0.547114 0.837058 0 -0.750401 0.660983 0 -0.750401 0.660983 0 -0.899413 0.437101 0 -0.899413 0.437101 0 -0.983372 0.181604 0 -0.983372 0.181604 0 -0.996206 -0.0870288 0 -0.996206 -0.0870288 0 -0.936986 -0.349367 0 -0.936986 -0.349367 0 -0.809996 -0.586435 0 -0.809996 -0.586435 0 -0.624421 -0.781088 0 -0.624421 -0.781088 0 -0.393682 -0.919247 0 -0.393682 -0.919247 0 -0.134469 -0.990918 0 -0.134469 -0.990918 0 0 -1 0 0 -1 0 0 -1 0 0 -1 0 0 -1 0 0 -1 0 0 -1 0 0 -1 0 0 -1 0 0 -1 0 -0.190809 0.981627 0 -0.190809 0.981627 0 -0.173648 -0.984808 0 -0.173648 -0.984808 0 -0.5 -0.866025 0 -0.5 -0.866025 0 -0.766044 -0.642788 0 -0.766044 -0.642788 0 -0.939693 -0.34202 0 -0.939693 -0.34202 0 -1 0 0 -1 0 0 -0.939693 0.34202 0 -0.939693 0.34202 0 -0.766044 0.642788 0 -0.766044 0.642788 0 -0.5 0.866025 0 -0.5 0.866025 0 -0.173648 0.984808 0 -0.173648 0.984808 0 0.173648 0.984808 0 0.173648 0.984808 0 0.5 0.866025 0 0.5 0.866025 0 0.766045 0.642787 0 0.766045 0.642787 0 0.939692 0.342021 0 0.939692 0.342021 0 1 0 0 1 0 0 0.939692 -0.342021 0 0.939692 -0.342021 0 0.766045 -0.642787 0 0.766045 -0.642787 0 0.5 -0.866026 0 0.5 -0.866026 0 0.173648 -0.984808 0 0.173648 -0.984808 0 0.258819 0 -0.965926 0.258819 0 -0.965926 0.707107 0 -0.707106 0.707107 0 -0.707106 0.965926 0 -0.25882 0.965926 0 -0.25882 0.965926 0 0.25882 0.965926 0 0.25882 0.707107 0 0.707107 0.707107 0 0.707107 0.258819 0 0.965926 0.258819 0 0.965926 0.156434 0 0.987688 0.453991 0 0.891007 0.453991 0 0.891007 0.707107 0 0.707107 0.707107 0 0.707107 0.891007 0 0.45399 0.891007 0 0.45399 0.987688 0 0.156434 0.987688 0 0.156434 0.987688 0 -0.156434 0.987688 0 -0.156434 0.891007 0 -0.45399 0.891007 0 -0.45399 0.707107 0 -0.707107 0.707107 0 -0.707107 0.453991 0 -0.891006 0.453991 0 -0.891006 0.156434 0 -0.987688 0.156434 0 -0.987688 -0.156434 0 -0.987688 -0.156434 0 -0.987688 -0.453991 0 -0.891006 -0.453991 0 -0.891006 -0.707107 0 -0.707107 -0.707107 0 -0.707107 -0.891007 0 -0.45399 -0.891007 0 -0.45399 -0.987688 0 -0.156434 -0.987688 0 -0.156434 -0.987688 0 0.156434 -0.987688 0 0.156434 -0.891007 0 0.45399 -0.891007 0 0.45399 -0.707107 0 0.707107 -0.707107 0 0.707107 -0.453991 0 0.891007 -0.453991 0 0.891007 -0.156434 0 0.987688 -0.156434 0 0.987688 0.156434 0 0.987688 0 1 0 0 1 0 0 1 0 0 1 0 0 1 0 0 1 0 0 1 0 0 1 0 0 1 0 0 1 0 0 1 0 0 1 0 0 1 0 0 1 0 0 1 0 0 1 0 0 1 0 0 1 0 0 1 0 0 1 0 0 1 0 0 1 0 0 1 0 0 1 0 -0.989821 -0.142315 0 -0.989821 -0.142315 0 -0.909632 -0.415415 0 -0.909632 -0.415415 0 -0.755749 -0.654861 0 -0.755749 -0.654861 0 -0.540641 -0.841253 0 -0.540641 -0.841253 0 -0.281733 -0.959493 0 -0.281733 -0.959493 0 0 -1 0 0 -1 0 0.281733 -0.959493 0 0.281733 -0.959493 0 0.540641 -0.841253 0 0.540641 -0.841253 0 0.755749 -0.654862 0 0.755749 -0.654862 0 0.909632 -0.415415 0 0.909632 -0.415415 0 0.989822 -0.142314 0 0.989822 -0.142314 0 0 0 1 0 0 1 0 0 1 0 0 1 0 0 1 0 0 1 0 0 1 0 0 1 0 0 1 0 0 1 0 0 1 0 0 1 0 0 -1 0 0 -1 0 0 -1 0 0 -1 0 0 -1 0 0 -1 0 0 -1 0 0 -1 0 0 -1 0 0 -1 0 0 -1 0 0 -1 0 -1 0 0 -1 0 0 0 1 0 0 1 0 0 1 0 0 1 0 0 1 0 0 1 0 0 1 0 0 1 0 0 1 0 0 1 0 0 1 0 0 1 0 0 1 0 0 1 0 0 1 0 0 1 0 0 1 0 0 1 0 0 1 0 0 1 0 0 1 0 0 1 0 0 1 0 0 1 0 0 1 0 0 1 0 0 1 0 0 1 0 0 1 0 0 1 0 0 1 0 0 1 0 0 -1 0 0 -1 0 0 -1 0 0 -1 0 0 -1 0 0 -1 0 0 -1 0 0 -1 0 0 -1 0 0 -1 0 0 -1 0 0 -1 0 0 -1 0 0 -1 0 0 -1 0 0 -1 0 0 -1 0 0 -1 0 0 -1 0 0 -1 0 0 -1 0 0 -1 0 0 -1 0 0 -1 0 0 -1 0 0 -1 0 0 -1 0 0 -1 0 0 -1 0 0 -1 0 0 -1 0 0 -1 0.173648 0.984808 0 0.499999 0.866026 0 0.499999 0.866026 0 0.766045 0.642787 0 0.766045 0.642787 0 0.939693 0.34202 0 0.939693 0.34202 0 1 0 0 1 0 0 0.939693 -0.34202 0 0.939693 -0.34202 0 0.766044 -0.642788 0 0.766044 -0.642788 0 0.500001 -0.866025 0 0.500001 -0.866025 0 0.173647 -0.984808 0 0.173647 -0.984808 0 -0.173647 -0.984808 0 -0.173647 -0.984808 0 -0.500001 -0.866025 0 -0.500001 -0.866025 0 -0.766044 -0.642788 0 -0.766044 -0.642788 0 -0.939693 -0.34202 0 -0.939693 -0.34202 0 -1 0 0 -1 0 0 -0.939693 0.34202 0 -0.939693 0.34202 0 -0.766045 0.642787 0 -0.766045 0.642787 0 -0.5 0.866026 0 -0.5 0.866026 0 -0.173648 0.984808 0 -0.173648 0.984808 0 0.173648 0.984808 0</float_array>
                    <technique_common>
                        <accessor count="604" source="#shape0-lib-normals-array" stride="3">
                            <param name="X" type="float"/>
                            <param name="Y" type="float"/>
                            <param name="Z" type="float"/>
                        </accessor>
                    </technique_common>
                </source>
                <vertices id="shape0-lib-vertices">
                    <input semantic="POSITION" source="#shape0-lib-positions"/>
                </vertices>
                <triangles count="604">
                    <input offset="0" semantic="VERTEX" source="#shape0-lib-vertices"/>
                    <input offset="1" semantic="NORMAL" source="#shape0-lib-normals"/>
                    <p>0 0 1 0 2 0 3 1 4 1 5 1 5 2 4 2 6 2 5 3 6 3 2 3 2 4 6 4 7 4 2 5 7 5 0 5 8 6 9 6 10 6 11 7 12 7 13 7 13 8 12 8 14 8 13 9 14 9 10 9 10 10 14 10 15 10 10 11 15 11 8 11 9 12 8 12 16 12 9 13 16 13 17 13 17 14 16 14 18 14 17 15 18 15 19 15 19 16 18 16 20 16 19 17 20 17 21 17 21 18 20 18 22 18 21 19 22 19 23 19 23 20 22 20 24 20 23 21 24 21 25 21 25 22 24 22 26 22 25 23 26 23 27 23 27 24 26 24 28 24 27 25 28 25 29 25 29 26 28 26 30 26 29 27 30 27 31 27 31 28 30 28 32 28 31 29 32 29 33 29 33 30 32 30 34 30 33 31 34 31 35 31 35 32 34 32 4 32 35 33 4 33 3 33 36 34 37 34 38 34 38 35 37 35 39 35 38 36 39 36 40 36 40 37 39 37 41 37 42 38 43 38 36 38 36 39 43 39 37 39 44 40 45 40 46 40 46 41 45 41 47 41 46 42 47 42 42 42 42 43 47 43 43 43 39 44 47 44 41 44 41 45 47 45 45 45 43 46 48 46 49 46 39 47 50 47 51 47 37 48 52 48 53 48 54 49 55 49 47 49 49 50 56 50 43 50 43 51 56 51 57 51 43 52 57 52 37 52 37 53 57 53 58 53 37 54 58 54 52 54 53 55 59 55 37 55 37 56 59 56 60 56 37 57 60 57 39 57 39 58 60 58 61 58 39 59 61 59 50 59 51 60 62 60 39 60 39 61 62 61 63 61 39 62 63 62 47 62 47 63 63 63 64 63 47 64 64 64 54 64 55 65 65 65 47 65 47 66 65 66 66 66 47 67 66 67 43 67 43 68 66 68 67 68 43 69 67 69 48 69 68 70 69 70 70 70 70 71 69 71 71 71 40 72 41 72 45 72 45 73 44 73 40 73 40 74 44 74 72 74 40 75 72 75 68 75 68 76 72 76 73 76 68 77 73 77 69 77 60 78 74 78 61 78 61 79 74 79 75 79 61 80 75 80 50 80 50 81 75 81 76 81 50 82 76 82 51 82 51 83 76 83 77 83 51 84 77 84 62 84 62 85 77 85 78 85 62 86 78 86 63 86 63 87 78 87 79 87 63 88 79 88 64 88 64 89 79 89 80 89 64 90 80 90 54 90 54 91 80 91 81 91 54 92 81 92 55 92 55 93 81 93 82 93 55 94 82 94 65 94 65 95 82 95 83 95 65 96 83 96 66 96 66 97 83 97 84 97 66 98 84 98 67 98 67 99 84 99 85 99 67 100 85 100 48 100 48 101 85 101 86 101 48 102 86 102 49 102 49 103 86 103 87 103 49 104 87 104 56 104 56 105 87 105 88 105 56 106 88 106 57 106 57 107 88 107 89 107 57 108 89 108 58 108 58 109 89 109 90 109 58 110 90 110 52 110 52 111 90 111 91 111 52 112 91 112 53 112 53 113 91 113 92 113 53 114 92 114 59 114 59 115 92 115 93 115 59 116 93 116 60 116 60 117 93 117 74 117 94 118 95 118 96 118 96 119 95 119 97 119 95 120 98 120 97 120 97 121 98 121 99 121 97 122 99 122 100 122 100 123 99 123 101 123 100 124 101 124 102 124 102 125 101 125 103 125 102 126 103 126 104 126 104 127 103 127 105 127 104 128 105 128 106 128 106 129 105 129 107 129 106 130 107 130 108 130 108 131 107 131 109 131 108 132 109 132 110 132 110 133 109 133 111 133 110 134 111 134 112 134 112 135 111 135 113 135 112 136 113 136 114 136 114 137 113 137 115 137 114 138 115 138 116 138 116 139 115 139 117 139 116 140 117 140 118 140 118 141 117 141 119 141 118 142 119 142 120 142 120 143 119 143 121 143 120 144 121 144 122 144 122 145 121 145 123 145 122 146 123 146 124 146 124 147 123 147 125 147 124 148 125 148 126 148 126 149 125 149 127 149 126 150 127 150 128 150 128 151 127 151 129 151 128 152 129 152 130 152 130 153 129 153 131 153 130 154 131 154 132 154 132 155 131 155 133 155 132 156 133 156 134 156 134 157 133 157 135 157 134 158 135 158 136 158 136 159 135 159 94 159 136 160 94 160 137 160 137 161 94 161 96 161 98 162 138 162 139 162 98 163 95 163 138 163 138 164 95 164 94 164 138 165 94 165 140 165 140 166 94 166 135 166 140 167 135 167 141 167 141 168 135 168 133 168 141 169 133 169 142 169 142 170 133 170 131 170 142 171 131 171 143 171 143 172 131 172 129 172 143 173 129 173 144 173 144 174 129 174 127 174 144 175 127 175 145 175 145 176 127 176 125 176 145 177 125 177 146 177 146 178 125 178 123 178 146 179 123 179 147 179 147 180 123 180 121 180 147 181 121 181 148 181 148 182 121 182 119 182 148 183 119 183 149 183 149 184 119 184 117 184 149 185 117 185 150 185 150 186 117 186 115 186 150 187 115 187 151 187 151 188 115 188 113 188 151 189 113 189 152 189 152 190 113 190 111 190 152 191 111 191 153 191 153 192 111 192 109 192 153 193 109 193 154 193 154 194 109 194 107 194 154 195 107 195 155 195 155 196 107 196 105 196 155 197 105 197 156 197 156 198 105 198 103 198 156 199 103 199 157 199 157 200 103 200 101 200 157 201 101 201 139 201 139 202 101 202 99 202 139 203 99 203 98 203 137 204 83 204 82 204 137 205 96 205 83 205 83 206 96 206 97 206 83 207 97 207 84 207 84 208 97 208 100 208 84 209 100 209 85 209 85 210 100 210 102 210 85 211 102 211 86 211 86 212 102 212 104 212 86 213 104 213 87 213 87 214 104 214 106 214 87 215 106 215 88 215 88 216 106 216 108 216 88 217 108 217 89 217 89 218 108 218 110 218 89 219 110 219 90 219 90 220 110 220 112 220 90 221 112 221 91 221 91 222 112 222 114 222 91 223 114 223 92 223 92 224 114 224 116 224 92 225 116 225 93 225 93 226 116 226 118 226 93 227 118 227 74 227 74 228 118 228 120 228 74 229 120 229 75 229 75 230 120 230 122 230 75 231 122 231 76 231 76 232 122 232 124 232 76 233 124 233 77 233 77 234 124 234 126 234 77 235 126 235 78 235 78 236 126 236 128 236 78 237 128 237 79 237 79 238 128 238 130 238 79 239 130 239 80 239 80 240 130 240 132 240 80 241 132 241 81 241 81 242 132 242 134 242 81 243 134 243 82 243 82 244 134 244 136 244 82 245 136 245 137 245 158 246 159 246 160 246 160 247 159 247 161 247 160 248 161 248 162 248 162 249 161 249 163 249 162 250 163 250 164 250 164 251 163 251 165 251 164 252 165 252 166 252 166 253 165 253 167 253 166 254 167 254 168 254 168 255 167 255 169 255 169 256 167 256 170 256 169 257 170 257 171 257 171 258 170 258 172 258 171 259 172 259 173 259 173 260 172 260 174 260 173 261 174 261 175 261 175 262 174 262 176 262 175 263 176 263 177 263 177 264 176 264 178 264 178 265 176 265 179 265 178 266 179 266 180 266 180 267 179 267 181 267 180 268 181 268 182 268 182 269 181 269 183 269 182 270 183 270 71 270 71 271 183 271 184 271 71 272 184 272 185 272 185 273 186 273 71 273 71 274 186 274 187 274 71 275 187 275 160 275 160 276 187 276 188 276 160 277 188 277 158 277 189 278 190 278 191 278 192 279 193 279 194 279 191 280 190 280 192 280 192 281 190 281 195 281 192 282 195 282 193 282 194 283 196 283 192 283 192 284 196 284 197 284 192 285 197 285 69 285 69 286 197 286 198 286 198 287 199 287 69 287 69 288 199 288 200 288 69 289 200 289 201 289 201 290 200 290 202 290 201 291 202 291 203 291 203 292 202 292 204 292 203 293 204 293 205 293 205 294 204 294 206 294 205 295 206 295 207 295 207 296 206 296 208 296 207 297 208 297 209 297 209 298 208 298 210 298 191 299 211 299 189 299 189 300 211 300 212 300 189 301 212 301 213 301 213 302 212 302 214 302 213 303 214 303 215 303 215 304 214 304 216 304 215 305 216 305 217 305 217 306 216 306 218 306 217 307 218 307 210 307 210 308 218 308 219 308 210 309 219 309 209 309 182 310 201 310 203 310 182 311 203 311 180 311 180 312 203 312 205 312 180 313 205 313 178 313 178 314 205 314 207 314 178 315 207 315 177 315 177 316 207 316 209 316 177 317 209 317 175 317 175 318 209 318 219 318 175 319 219 319 173 319 173 320 219 320 218 320 173 321 218 321 171 321 171 322 218 322 216 322 171 323 216 323 169 323 169 324 216 324 214 324 169 325 214 325 168 325 168 326 214 326 212 326 168 327 212 327 166 327 166 328 212 328 211 328 166 329 211 329 164 329 164 330 211 330 191 330 164 331 191 331 162 331 220 332 46 332 42 332 191 333 42 333 162 333 162 334 42 334 36 334 36 335 38 335 221 335 220 336 42 336 222 336 222 337 42 337 191 337 222 338 191 338 192 338 36 339 221 339 162 339 162 340 221 340 223 340 162 341 223 341 160 341 182 342 71 342 201 342 201 343 71 343 69 343 183 344 202 344 184 344 184 345 202 345 200 345 184 346 200 346 185 346 185 347 200 347 199 347 185 348 199 348 186 348 186 349 199 349 198 349 186 350 198 350 187 350 187 351 198 351 197 351 187 352 197 352 188 352 188 353 197 353 196 353 188 354 196 354 158 354 158 355 196 355 194 355 158 356 194 356 159 356 159 357 194 357 193 357 159 358 193 358 161 358 161 359 193 359 195 359 161 360 195 360 163 360 163 361 195 361 190 361 163 362 190 362 165 362 165 363 190 363 189 363 165 364 189 364 167 364 167 365 189 365 213 365 167 366 213 366 170 366 170 367 213 367 215 367 170 368 215 368 172 368 172 369 215 369 217 369 172 370 217 370 174 370 174 371 217 371 210 371 174 372 210 372 176 372 176 373 210 373 208 373 176 374 208 374 179 374 179 375 208 375 206 375 179 376 206 376 181 376 181 377 206 377 204 377 181 378 204 378 183 378 183 379 204 379 202 379 44 380 46 380 72 380 72 381 46 381 220 381 72 382 220 382 73 382 73 383 220 383 222 383 73 384 222 384 69 384 69 385 222 385 192 385 71 386 160 386 70 386 70 387 160 387 223 387 70 388 223 388 68 388 68 389 223 389 221 389 68 390 221 390 40 390 40 391 221 391 38 391 149 392 224 392 148 392 148 393 224 393 225 393 148 394 225 394 147 394 147 395 225 395 226 395 147 396 226 396 146 396 146 397 226 397 227 397 146 398 227 398 145 398 145 399 227 399 228 399 145 400 228 400 144 400 144 401 228 401 229 401 144 402 229 402 143 402 143 403 229 403 230 403 143 404 230 404 142 404 142 405 230 405 231 405 142 406 231 406 141 406 141 407 231 407 232 407 141 408 232 408 140 408 140 409 232 409 233 409 140 410 233 410 138 410 138 411 233 411 234 411 138 412 234 412 139 412 139 413 234 413 235 413 139 414 235 414 157 414 157 415 235 415 236 415 157 416 236 416 156 416 156 417 236 417 237 417 156 418 237 418 155 418 155 419 237 419 238 419 155 420 238 420 154 420 154 421 238 421 239 421 154 422 239 422 153 422 153 423 239 423 240 423 153 424 240 424 152 424 152 425 240 425 241 425 152 426 241 426 151 426 151 427 241 427 242 427 151 428 242 428 150 428 150 429 242 429 243 429 150 430 243 430 149 430 149 431 243 431 224 431 231 432 230 432 6 432 226 433 225 433 7 433 225 434 224 434 7 434 7 435 224 435 243 435 7 436 243 436 14 436 243 437 242 437 14 437 14 438 242 438 241 438 14 439 241 439 240 439 230 440 229 440 6 440 6 441 229 441 228 441 6 442 228 442 7 442 7 443 228 443 227 443 7 444 227 444 226 444 240 445 239 445 14 445 14 446 239 446 238 446 14 447 238 447 15 447 238 448 237 448 15 448 15 449 237 449 236 449 15 450 236 450 235 450 235 451 234 451 15 451 15 452 234 452 233 452 15 453 233 453 6 453 6 454 233 454 232 454 6 455 232 455 231 455 12 456 11 456 244 456 12 457 244 457 245 457 245 458 244 458 246 458 245 459 246 459 247 459 247 460 246 460 248 460 247 461 248 461 249 461 249 462 248 462 250 462 249 463 250 463 251 463 251 464 250 464 252 464 251 465 252 465 253 465 253 466 252 466 254 466 253 467 254 467 255 467 255 468 254 468 256 468 255 469 256 469 257 469 257 470 256 470 258 470 257 471 258 471 259 471 259 472 258 472 260 472 259 473 260 473 261 473 261 474 260 474 262 474 261 475 262 475 263 475 263 476 262 476 1 476 263 477 1 477 0 477 251 478 253 478 0 478 7 479 14 479 0 479 0 480 14 480 12 480 0 481 12 481 245 481 257 482 259 482 261 482 245 483 247 483 0 483 0 484 247 484 249 484 0 485 249 485 251 485 253 486 255 486 0 486 0 487 255 487 257 487 0 488 257 488 263 488 263 489 257 489 261 489 32 490 30 490 28 490 24 491 22 491 4 491 4 492 22 492 20 492 4 493 20 493 18 493 4 494 34 494 24 494 24 495 34 495 32 495 24 496 32 496 26 496 26 497 32 497 28 497 15 498 6 498 8 498 8 499 6 499 4 499 8 500 4 500 16 500 16 501 4 501 18 501 10 502 5 502 13 502 13 503 5 503 2 503 264 504 265 504 21 504 266 505 5 505 267 505 267 506 5 506 10 506 267 507 10 507 268 507 268 508 10 508 269 508 21 509 265 509 19 509 19 510 265 510 270 510 19 511 270 511 17 511 17 512 270 512 271 512 17 513 271 513 9 513 9 514 271 514 272 514 9 515 272 515 10 515 10 516 272 516 273 516 10 517 273 517 269 517 21 518 23 518 264 518 264 519 23 519 25 519 264 520 25 520 274 520 274 521 25 521 27 521 274 522 27 522 275 522 275 523 27 523 29 523 275 524 29 524 276 524 276 525 29 525 31 525 276 526 31 526 277 526 277 527 31 527 33 527 277 528 33 528 278 528 278 529 33 529 35 529 278 530 35 530 279 530 279 531 35 531 3 531 279 532 3 532 280 532 280 533 3 533 5 533 280 534 5 534 281 534 281 535 5 535 266 535 282 536 254 536 283 536 283 537 254 537 252 537 283 538 252 538 284 538 284 539 252 539 250 539 284 540 250 540 285 540 285 541 250 541 248 541 285 542 248 542 286 542 286 543 248 543 246 543 286 544 246 544 287 544 287 545 246 545 244 545 287 546 244 546 288 546 288 547 244 547 11 547 288 548 11 548 289 548 289 549 11 549 13 549 289 550 13 550 290 550 290 551 13 551 291 551 292 552 2 552 293 552 293 553 2 553 1 553 293 554 1 554 294 554 294 555 1 555 262 555 294 556 262 556 295 556 295 557 262 557 260 557 295 558 260 558 296 558 296 559 260 559 258 559 296 560 258 560 282 560 282 561 258 561 256 561 282 562 256 562 254 562 292 563 297 563 2 563 2 564 297 564 298 564 2 565 298 565 13 565 13 566 298 566 299 566 13 567 299 567 291 567 267 568 298 568 266 568 266 569 298 569 297 569 266 570 297 570 281 570 281 571 297 571 292 571 281 572 292 572 280 572 280 573 292 573 293 573 280 574 293 574 279 574 279 575 293 575 294 575 279 576 294 576 278 576 278 577 294 577 295 577 278 578 295 578 277 578 277 579 295 579 296 579 277 580 296 580 276 580 276 581 296 581 282 581 276 582 282 582 275 582 275 583 282 583 283 583 275 584 283 584 274 584 274 585 283 585 284 585 274 586 284 586 264 586 264 587 284 587 285 587 264 588 285 588 265 588 265 589 285 589 286 589 265 590 286 590 270 590 270 591 286 591 287 591 270 592 287 592 271 592 271 593 287 593 288 593 271 594 288 594 272 594 272 595 288 595 289 595 272 596 289 596 273 596 273 597 289 597 290 597 273 598 290 598 269 598 269 599 290 599 291 599 269 600 291 600 268 600 268 601 291 601 299 601 268 602 299 602 267 602 267 603 299 603 298 603</p>
                </triangles>
            </mesh>
        </geometry>
    </library_geometries>
    <library_visual_scenes>
        <visual_scene id="VisualSceneNode" name="VisualScene">
            <node id="node" name="node">
                <instance_geometry url="#shape0-lib"/>
            </node>
        </visual_scene>
    </library_visual_scenes>
    <scene>
        <instance_visual_scene url="#VisualSceneNode"/>
    </scene>
</COLLADA>
